<svg width="136" height="136" viewBox="0 0 136 136" fill="none" xmlns="http://www.w3.org/2000/svg">
<rect width="136" height="136" rx="68" fill="#1165A2"/>
<path d="M68.8359 77.3978L70.1389 77.6719L68.3681 86.0677H30.4483L30 85.6641H32.0138C34.2778 85.6641 35.8967 84.9329 36.8707 83.4703C37.4235 82.6345 37.6999 80.7015 37.6999 77.6719V34.4027C37.6999 31.0856 37.3314 29.0092 36.5943 28.1734C35.5677 27.0242 34.0408 26.4496 32.0138 26.4496H30V25H50.7033V26.4496C47.8603 26.4235 45.8596 26.6846 44.7013 27.2331C43.5693 27.7816 42.7928 28.4738 42.3716 29.3096C41.9504 30.1454 41.7398 32.1434 41.7398 35.3038V77.6719C41.7398 79.8396 41.9504 81.3283 42.3716 82.138C42.6875 82.6867 43.1745 83.0915 43.8326 83.3526C44.4907 83.6137 46.5441 83.7444 49.9926 83.7444H53.9018C58.0084 83.7444 60.8909 83.4439 62.5494 82.8434C64.2079 82.2427 65.7215 81.1849 67.0905 79.6698C68.4593 78.1289 67.7778 78.9843 68.8359 77.3978Z" fill="white"/>
<path d="M87.3554 41.5278H105.901V43.1062H104.785C104.041 43.1062 102.953 43.4332 101.522 44.0874C100.091 44.7415 98.789 45.68 97.6157 46.903C96.442 48.1259 94.9968 50.1167 93.2798 52.8754L79.2418 74.8454V99.9749C79.2418 103.53 79.6425 105.748 80.4436 106.63C81.5312 107.824 83.2486 108.422 85.5953 108.422H87.4841V110H67.5436V108.422H69.6042C72.0655 108.422 73.8113 107.682 74.8416 106.203C75.4712 105.293 75.786 103.217 75.786 99.9749V75.6559L60.9217 51.4249C59.0328 48.5809 57.7449 46.8034 57.0581 46.0924C56.3998 45.3814 55.0118 44.5282 52.8939 43.5328C52.3216 43.2484 51.4916 43.1062 50.404 43.1062V41.5278H71.1711V43.1062H69.8832C68.5381 43.1062 67.2931 43.419 66.1483 44.0447C65.0322 44.6704 64.4741 45.6089 64.4741 46.8603C64.4741 47.8841 65.347 49.7327 67.0928 52.4061L79.2418 71.0486L90.6608 53.2166C92.3781 50.5433 93.2368 48.5525 93.2368 47.2442C93.2368 46.4479 93.0221 45.7369 92.5928 45.1112C92.192 44.4855 91.6055 44.002 90.8326 43.6608C90.06 43.291 88.9009 43.1062 87.3554 43.1062V41.5278Z" fill="white"/>
<path d="M33.6255 91.0937H30.5566V89.8047H38.1592V91.0937H35.0903V100H33.6255V91.0937Z" fill="white"/>
<path d="M43.4253 100.117C40.6616 100.117 39.2798 98.7671 39.2798 96.0669C39.2798 94.9048 39.6631 93.9746 40.4297 93.2764C41.1182 92.6416 41.9043 92.3242 42.7881 92.3242C43.75 92.3242 44.502 92.6465 45.0439 93.291C45.5469 93.8916 45.7983 94.6948 45.7983 95.7007V96.2719H40.8032C40.8032 97.6538 41.3672 98.4985 42.4951 98.8061C42.7637 98.8794 43.1763 98.916 43.7329 98.916C44.2944 98.916 44.8437 98.8403 45.3809 98.6889V99.9267C44.8437 100.054 44.1919 100.117 43.4253 100.117ZM44.3335 95.1953C44.3335 94.7265 44.2041 94.331 43.9453 94.0088C43.6426 93.6377 43.2251 93.4521 42.6929 93.4521C42.1313 93.4521 41.6748 93.6303 41.3232 93.9868C41.001 94.3188 40.8398 94.7217 40.8398 95.1953H44.3335Z" fill="white"/>
<path d="M47.7466 98.6523C47.5854 98.374 47.4561 98.0469 47.3584 97.6709C47.2656 97.2949 47.2192 96.8042 47.2192 96.1987C47.2192 95.5932 47.3486 95.0366 47.6074 94.5288C47.8711 94.0161 48.2129 93.5962 48.6328 93.269C49.4482 92.6391 50.4614 92.3242 51.6724 92.3242C52.3022 92.3242 52.7783 92.3388 53.1006 92.3681C53.1006 92.3681 53.3374 92.3926 53.811 92.4414V100H52.4927L52.4341 99.1284C52.1411 99.519 51.6943 99.8096 51.0938 100C50.8643 100.073 50.6274 100.11 50.3833 100.11C50.144 100.11 49.9072 100.085 49.6729 100.037C49.4385 99.9878 49.2041 99.9072 48.9697 99.7949C48.7402 99.6826 48.5205 99.5337 48.3105 99.3481C48.1006 99.1577 47.9126 98.9258 47.7466 98.6523ZM52.3462 93.5181C52.0337 93.479 51.7212 93.4594 51.4087 93.4594C51.1011 93.4594 50.7715 93.5156 50.4199 93.6279C50.0684 93.7353 49.7681 93.9062 49.519 94.1406C49.0015 94.6289 48.7427 95.3735 48.7427 96.3745C48.7427 97.3218 48.9648 98.0224 49.4092 98.4765C49.7461 98.8135 50.1514 98.9819 50.625 98.9819C51.2354 98.9819 51.7383 98.7597 52.1338 98.3154C52.2314 98.2031 52.3022 98.103 52.3462 98.0151V93.5181Z" fill="white"/>
<path d="M57.6489 94.3237L57.6562 100H56.1914V92.4414H57.5391L57.6416 93.269C58.1787 92.8198 58.8037 92.5268 59.5166 92.3901C59.7461 92.3462 59.9707 92.3242 60.1904 92.3242C61.1035 92.3242 61.792 92.7099 62.2559 93.4814C63.1055 92.7099 63.9941 92.3242 64.9219 92.3242C65.8398 92.3242 66.5088 92.6001 66.9287 93.1518C67.3486 93.7134 67.5586 94.6411 67.5586 95.935V100H66.0938V95.9863C66.0938 94.7168 65.7886 93.9575 65.1782 93.7085C64.9731 93.6255 64.7339 93.584 64.4604 93.584C63.8062 93.584 63.2056 93.8183 62.6587 94.2871V100H61.1938V95.9277C61.1938 95.0586 61.0645 94.4482 60.8057 94.0967C60.5566 93.7549 60.1099 93.584 59.4653 93.584C58.8257 93.584 58.2202 93.8305 57.6489 94.3237Z" fill="white"/>
</svg>
