<svg width="36" height="36" viewBox="0 0 36 36" fill="none" xmlns="http://www.w3.org/2000/svg">
<rect width="36" height="36" rx="8" fill="#FDFDFD"/>
<path fill-rule="evenodd" clip-rule="evenodd" d="M18.0083 8C12.474 8 8 12.5833 8 18.2535C8 22.786 10.8666 26.6226 14.8434 27.9805C15.3406 28.0826 15.5227 27.7599 15.5227 27.4885C15.5227 27.2508 15.5063 26.436 15.5063 25.587C12.7222 26.1983 12.1425 24.3647 12.1425 24.3647C11.6951 23.1764 11.0321 22.871 11.0321 22.871C10.1209 22.2429 11.0985 22.2429 11.0985 22.2429C12.1093 22.3108 12.6397 23.2954 12.6397 23.2954C13.5343 24.857 14.9759 24.4158 15.5559 24.1441C15.6386 23.482 15.9039 23.0237 16.1856 22.7691C13.9651 22.5314 11.6289 21.6487 11.6289 17.7102C11.6289 16.5898 12.0263 15.6731 12.6561 14.9602C12.5567 14.7056 12.2087 13.6529 12.7556 12.2439C12.7556 12.2439 13.6007 11.9723 15.5061 13.2964C16.3219 13.072 17.1632 12.9578 18.0083 12.9569C18.8533 12.9569 19.7148 13.0758 20.5102 13.2964C22.4159 11.9723 23.2609 12.2439 23.2609 12.2439C23.8079 13.6529 23.4596 14.7056 23.3603 14.9602C24.0066 15.6731 24.3876 16.5898 24.3876 17.7102C24.3876 21.6487 22.0514 22.5143 19.8143 22.7691C20.179 23.0916 20.4936 23.7026 20.4936 24.6703C20.4936 26.0453 20.4773 27.1489 20.4773 27.4883C20.4773 27.7599 20.6596 28.0826 21.1566 27.9807C25.1333 26.6224 28 22.786 28 18.2535C28.0163 12.5833 23.526 8 18.0083 8Z" fill="#5E3BEE"/>
</svg>
