<svg width="136" height="136" viewBox="0 0 136 136" fill="none" xmlns="http://www.w3.org/2000/svg">
<rect width="136" height="136" rx="68" fill="#031E4C"/>
<g clip-path="url(#clip0_1608_4651)">
<path d="M67.815 28.0117C68.1902 27.9739 68.4137 28.0331 68.7771 28.1138C70.4414 28.4847 71.1704 29.6224 72.2361 30.8238L74.7619 33.6804L75.5626 34.6613L76.3219 35.457L78.064 37.4423L80.5188 40.2871L85.2803 45.7145L92.0459 53.3931L97.1745 59.2558L100.837 63.4789L105.928 69.2542C106.558 69.9715 107.364 70.751 107.714 71.6541L107.85 72.1723C107.988 72.6505 107.999 72.5328 108 73.0606V83.646V104.077C107.999 104.733 107.959 104.55 107.816 105.113C107.315 107.075 105.728 107.997 103.782 108H60.6364H51.8298C50.05 107.997 48.3056 107.092 47.8061 105.261C47.7506 105.058 47.6862 104.171 47.6855 103.929V88.0135V79.2046C47.7151 76.7255 49.6333 75.359 51.9778 75.3553H80.0259H81.654C83.8638 75.3553 86.4444 75.0133 87.8024 77.2067C87.9608 77.4628 88.1658 77.8766 88.2316 78.1682C88.3582 78.7323 88.4618 79.1394 88.4625 79.7228V88.8277C88.4566 89.2837 88.4033 89.3674 88.3064 89.79C88.2028 90.2379 88.2124 90.3571 87.9993 90.8057C87.2955 92.2891 85.8294 92.999 84.2442 92.9731C83.8091 92.9657 83.3029 92.8006 82.9121 92.6141C81.7643 92.067 81.1515 91.3964 80.8044 90.1602C80.6468 89.5991 80.6187 89.756 80.6179 89.1238V84.6824C80.6179 84.3663 80.706 83.4617 80.4381 83.2774C80.3042 83.1856 80.0377 83.2019 79.8779 83.2019H61.0805H56.1221C55.4006 83.2034 55.3835 83.3114 55.3821 84.0162V96.4522V99.0431C55.3821 99.3059 55.3325 99.8573 55.5005 100.056C55.6685 100.256 55.9608 100.227 56.1961 100.227H89.9426H97.7872H99.4894C99.6914 100.224 99.8942 100.225 100.037 100.056C100.177 99.8899 100.155 99.6182 100.155 99.4132V75.1333C100.155 74.9526 100.165 74.7165 100.104 74.5477C100.013 74.2983 98.9965 73.1775 98.753 72.9125L95.086 68.7435L92.8518 66.1571L86.0736 58.4267L85.4705 57.7879L81.3543 53.0355L80.5632 52.185L77.1915 48.3365L72.0414 42.4145L71.3362 41.6514L68.9754 38.9228C68.8096 38.7407 68.2457 38.0456 68.0363 38.019C67.8068 37.9886 67.4265 38.4528 67.2718 38.6215L65.3491 40.7927L57.3735 49.7429L46.1935 62.3271L45.3158 63.2531L42.4377 66.5405L40.8703 68.2816L39.5937 69.7102L37.1219 72.4891C36.8555 72.8 36.0089 73.6446 35.8964 73.9555C35.835 74.125 35.8446 74.3597 35.8446 74.5411V89.4939V104.003C35.8416 106.006 34.454 107.694 32.4403 107.937C32.2154 107.964 32.0814 108.003 31.8483 107.987C30.2209 107.87 28.8096 107.018 28.2768 105.409L28.1473 104.817C28.0259 104.258 28.0007 104.399 28 103.781V84.0162V72.7645C28.0052 72.2389 28.0392 72.2182 28.1554 71.7281L28.2805 71.1359C28.6394 70.073 29.8649 68.8923 30.6265 68.0477L36.2731 61.7038L37.4853 60.3277L38.235 59.5341L38.8359 58.7857L39.6063 57.9596L43.2555 53.8883L45.0028 51.8697L46.5791 50.1131L47.334 49.3299L47.9282 48.5963L48.8888 47.5533L49.9434 46.3282L50.9432 45.2637L55.6166 39.9695L56.4381 39.1116L56.9421 38.4942L58.5155 36.7339L63.5456 31.1081C64.2139 30.359 65.1996 29.0399 66.0389 28.5557C66.5872 28.2397 67.1993 28.1116 67.815 28.0117Z" fill="#FDFDFD"/>
</g>
<defs>
<clipPath id="clip0_1608_4651">
<rect width="80" height="80" fill="white" transform="translate(28 28)"/>
</clipPath>
</defs>
</svg>
